<svg width="32" height="32" viewBox="0 0 32 32" fill="none" xmlns="http://www.w3.org/2000/svg">
<circle cx="16" cy="16" r="16" fill="url(#paint0_linear_138_1624)"/>
<path d="M15.293 8.29289C15.6835 7.90237 16.3165 7.90237 16.707 8.29289L23.707 15.2929C23.7548 15.3407 23.7976 15.3935 23.835 15.4501C23.8597 15.4876 23.8812 15.5265 23.9004 15.5663C23.9222 15.6115 23.9412 15.6583 23.9561 15.707C23.9623 15.7272 23.9668 15.7479 23.9717 15.7685C23.9893 15.8428 24 15.9202 24 15.9999C24 16.0829 23.9878 16.163 23.9688 16.2402C23.9646 16.2571 23.9611 16.2742 23.9561 16.2909C23.9412 16.3399 23.9223 16.387 23.9004 16.4325C23.8804 16.4742 23.8572 16.5145 23.8311 16.5536C23.8185 16.5725 23.8048 16.5904 23.791 16.6083C23.7649 16.6421 23.738 16.676 23.707 16.707L16.707 23.707C16.3165 24.0974 15.6835 24.0974 15.293 23.707C14.9025 23.3164 14.9025 22.6834 15.293 22.2929L20.5859 16.9999H9C8.44774 16.9999 8.00004 16.5522 8 15.9999C8 15.4476 8.44772 14.9999 9 14.9999H20.5859L15.293 9.70696C14.9025 9.31644 14.9025 8.68342 15.293 8.29289Z" fill="white"/>
<defs>
<linearGradient id="paint0_linear_138_1624" x1="5.45457" y1="36.8773" x2="32.5526" y2="3.03044" gradientUnits="userSpaceOnUse">
<stop stop-color="#566FC6"/>
<stop offset="1" stop-color="#BDC8F4"/>
</linearGradient>
</defs>
</svg>
