<svg width="24" height="24" viewBox="0 0 24 24" fill="none" xmlns="http://www.w3.org/2000/svg">
<path d="M8 2C9.32608 2 10.5975 2.52716 11.5352 3.46484C11.7036 3.63332 11.8587 3.81256 12 4.00098C12.1413 3.81256 12.2964 3.63332 12.4648 3.46484C13.4025 2.52716 14.6739 2 16 2H21C21.5304 2 22.039 2.21086 22.4141 2.58594C22.7891 2.96101 23 3.46957 23 4V6C23 6.55228 22.5523 7 22 7C21.4477 7 21 6.55228 21 6V4H16C15.2044 4 14.4415 4.3163 13.8789 4.87891C13.3174 5.44036 13.0013 6.20123 13 6.99512V17.5371C13.603 17.1887 14.2915 17 15 17H21V15.7002C21 15.1479 21.4477 14.7002 22 14.7002C22.5523 14.7002 23 15.1479 23 15.7002V17C23 17.5304 22.7891 18.039 22.4141 18.4141C22.039 18.7891 21.5304 19 21 19H15C14.4696 19 13.961 19.2109 13.5859 19.5859C13.2109 19.961 13 20.4696 13 21C13 21.5523 12.5523 22 12 22C11.4477 22 11 21.5523 11 21C11 20.4696 10.7891 19.961 10.4141 19.5859C10.0858 19.2577 9.65526 19.0551 9.19727 19.0098L9 19H3C2.46957 19 1.96101 18.7891 1.58594 18.4141C1.21086 18.039 1 17.5304 1 17V4C1 3.46957 1.21086 2.96101 1.58594 2.58594C1.96101 2.21086 2.46957 2 3 2H8ZM3 17H9C9.70846 17 10.397 17.1887 11 17.5371V6.99512C10.9987 6.20123 10.6826 5.44036 10.1211 4.87891C9.55849 4.3163 8.79565 4 8 4H3V17ZM21.293 9.29297C21.6835 8.90244 22.3165 8.90244 22.707 9.29297C23.0976 9.68349 23.0976 10.3165 22.707 10.707L18.707 14.707C18.3165 15.0976 17.6835 15.0976 17.293 14.707L15.293 12.707C14.9024 12.3165 14.9024 11.6835 15.293 11.293C15.6591 10.9269 16.2381 10.9043 16.6309 11.2246L16.707 11.293L18 12.5859L21.293 9.29297Z" fill="#363636"/>
</svg>
