<svg width="24" height="24" viewBox="0 0 24 24" fill="none" xmlns="http://www.w3.org/2000/svg">
<path d="M2.99206 16.3419C3.1391 16.7129 3.17183 17.1193 3.08606 17.5089L2.02106 20.7989C1.98674 20.9658 1.99561 21.1386 2.04683 21.3011C2.09805 21.4635 2.18992 21.6102 2.31372 21.7272C2.43753 21.8442 2.58917 21.9276 2.75426 21.9696C2.91935 22.0115 3.09242 22.0106 3.25706 21.9669L6.67006 20.9689C7.03777 20.896 7.41859 20.9279 7.76906 21.0609C9.90444 22.0582 12.3234 22.2691 14.5992 21.6567C16.875 21.0442 18.8613 19.6476 20.2078 17.7133C21.5542 15.779 22.1742 13.4313 21.9584 11.0845C21.7425 8.73763 20.7048 6.54241 19.0281 4.88613C17.3515 3.22986 15.1438 2.21898 12.7944 2.03183C10.4451 1.84469 8.10519 2.49332 6.1875 3.86328C4.26981 5.23323 2.89759 7.23648 2.31295 9.51958C1.72831 11.8027 1.96883 14.2189 2.99206 16.3419Z" stroke="#363636" stroke-width="2" stroke-linecap="round" stroke-linejoin="round"/>
</svg>
