<svg width="24" height="24" viewBox="0 0 24 24" fill="none" xmlns="http://www.w3.org/2000/svg">
<path d="M14.3956 2.41901C15.4005 2.00278 16.5065 1.89335 17.5733 2.10553C18.6401 2.31777 19.6196 2.84229 20.3887 3.61139C21.1579 4.38051 21.6823 5.36003 21.8946 6.42682C22.1068 7.49366 21.9973 8.59961 21.5811 9.60456C21.1811 10.5702 20.5142 11.4004 19.6602 12.0001C20.5142 12.5997 21.1811 13.4299 21.5811 14.3956C21.9973 15.4005 22.1068 16.5065 21.8946 17.5733C21.6824 18.6401 21.1579 19.6196 20.3887 20.3887C19.6196 21.1579 18.6401 21.6824 17.5733 21.8946C16.5065 22.1068 15.4005 21.9973 14.3956 21.5811C13.4299 21.1811 12.5997 20.5142 12.0001 19.6602C11.4004 20.5142 10.5702 21.1811 9.60456 21.5811C8.59961 21.9973 7.49366 22.1068 6.42682 21.8946C5.36003 21.6823 4.38051 21.1579 3.61139 20.3887C2.84229 19.6196 2.31777 18.6401 2.10553 17.5733C1.89335 16.5065 2.00278 15.4005 2.41901 14.3956C2.8189 13.4302 3.4853 12.5997 4.33893 12.0001C3.48533 11.4004 2.81889 10.57 2.41901 9.60456C2.0028 8.59962 1.89333 7.49364 2.10553 6.42682C2.31778 5.36002 2.84226 4.38052 3.61139 3.61139C4.38052 2.84226 5.36002 2.31778 6.42682 2.10553C7.49364 1.89333 8.59962 2.0028 9.60456 2.41901C10.57 2.81889 11.4004 3.48533 12.0001 4.33893C12.5997 3.4853 13.4302 2.8189 14.3956 2.41901ZM7.50006 13.0001C6.8079 13.0001 6.13125 13.2054 5.55573 13.5899C4.98031 13.9744 4.5316 14.5209 4.26666 15.1602C4.00179 15.7997 3.93247 16.5038 4.06745 17.1827C4.20249 17.8616 4.53601 18.4852 5.02545 18.9747C5.51492 19.4641 6.13855 19.7976 6.81745 19.9327C7.49632 20.0677 8.20043 19.9983 8.83991 19.7335C9.47926 19.4685 10.0257 19.0198 10.4102 18.4444C10.7947 17.8689 11.0001 17.1922 11.0001 16.5001V15.8741C10.6328 15.7796 10.2863 15.6336 9.96784 15.4454L8.70709 16.7071C8.31657 17.0976 7.68354 17.0976 7.29303 16.7071C6.9026 16.3166 6.90259 15.6835 7.29303 15.293L8.55377 14.0313C8.36586 13.7132 8.22044 13.3669 8.12604 13.0001H7.50006ZM15.8741 13.0001C15.7796 13.367 15.6334 13.713 15.4454 14.0313L16.7071 15.293C17.0976 15.6836 17.0976 16.3166 16.7071 16.7071C16.3166 17.0976 15.6836 17.0976 15.293 16.7071L14.0313 15.4454C13.713 15.6334 13.367 15.7796 13.0001 15.8741V16.5001C13.0001 17.1922 13.2054 17.8689 13.5899 18.4444C13.9744 19.0198 14.5209 19.4685 15.1602 19.7335C15.7997 19.9983 16.5038 20.0677 17.1827 19.9327C17.8616 19.7976 18.4852 19.4642 18.9747 18.9747C19.4642 18.4852 19.7976 17.8616 19.9327 17.1827C20.0677 16.5038 19.9983 15.7997 19.7335 15.1602C19.4685 14.5209 19.0198 13.9744 18.4444 13.5899C17.8689 13.2054 17.1922 13.0001 16.5001 13.0001H15.8741ZM12.0001 10.0001C11.4528 10.0001 10.9569 10.22 10.5958 10.5762C10.5926 10.5795 10.5902 10.5837 10.587 10.587C10.5837 10.5902 10.5795 10.5926 10.5762 10.5958C10.22 10.9569 10.0001 11.4528 10.0001 12.0001C10.0001 12.5471 10.2204 13.0423 10.5762 13.4034C10.5797 13.4067 10.5836 13.4097 10.587 13.4131C10.5901 13.4162 10.5927 13.4198 10.5958 13.4229C10.9569 13.7794 11.4525 14 12.0001 14.0001C13.1046 14.0001 14.0001 13.1046 14.0001 12.0001C14 11.4525 13.7794 10.9569 13.4229 10.5958C13.4198 10.5927 13.4162 10.5901 13.4131 10.587C13.4097 10.5836 13.4067 10.5797 13.4034 10.5762C13.0423 10.2204 12.5471 10.0001 12.0001 10.0001ZM8.83991 4.26666C8.20044 4.00181 7.4963 3.93245 6.81745 4.06745C6.13853 4.2025 5.51492 4.53598 5.02545 5.02545C4.53598 5.51492 4.2025 6.13853 4.06745 6.81745C3.93245 7.4963 4.00181 8.20044 4.26666 8.83991C4.53158 9.47923 4.98033 10.0257 5.55573 10.4102C6.13125 10.7947 6.8079 11 7.50006 11.0001H8.12604C8.22052 10.633 8.36564 10.2862 8.55377 9.96784L7.29303 8.70709C6.90258 8.31656 6.90253 7.68353 7.29303 7.29303C7.68353 6.90253 8.31656 6.90258 8.70709 7.29303L9.96784 8.55377C10.2862 8.36564 10.633 8.22052 11.0001 8.12604V7.50006C11 6.8079 10.7947 6.13125 10.4102 5.55573C10.0257 4.98033 9.47923 4.53158 8.83991 4.26666ZM17.1827 4.06745C16.5038 3.93247 15.7997 4.00179 15.1602 4.26666C14.5209 4.5316 13.9744 4.98031 13.5899 5.55573C13.2054 6.13125 13.0001 6.8079 13.0001 7.50006V8.12604C13.3669 8.22044 13.7132 8.36586 14.0313 8.55377L15.293 7.29303C15.6835 6.90259 16.3166 6.9026 16.7071 7.29303C17.0976 7.68354 17.0976 8.31657 16.7071 8.70709L15.4454 9.96784C15.6336 10.2863 15.7796 10.6328 15.8741 11.0001H16.5001C17.1922 11.0001 17.8689 10.7947 18.4444 10.4102C19.0198 10.0257 19.4685 9.47926 19.7335 8.83991C19.9983 8.20043 20.0677 7.49632 19.9327 6.81745C19.7976 6.13855 19.4641 5.51492 18.9747 5.02545C18.4852 4.53601 17.8616 4.20249 17.1827 4.06745Z" fill="url(#paint0_linear_132_2281)"/>
<defs>
<linearGradient id="paint0_linear_132_2281" x1="5.40913" y1="25.0485" x2="22.3455" y2="3.89404" gradientUnits="userSpaceOnUse">
<stop stop-color="#566FC6"/>
<stop offset="1" stop-color="#BDC8F4"/>
</linearGradient>
</defs>
</svg>
