<svg width="24" height="24" viewBox="0 0 24 24" fill="none" xmlns="http://www.w3.org/2000/svg">
<path d="M8.29302 14.293C8.68354 13.9025 9.31655 13.9025 9.70708 14.293C10.0975 14.6835 10.0976 15.3166 9.70708 15.7071L5.70708 19.7071C5.31658 20.0976 4.68355 20.0975 4.29302 19.7071L2.29302 17.7071C1.90249 17.3166 1.90249 16.6835 2.29302 16.293C2.65913 15.9269 3.23813 15.9043 3.63091 16.2247L3.70708 16.293L5.00005 17.586L8.29302 14.293ZM21 17C21.5523 17.0001 22 17.4478 22 18C22 18.5523 21.5523 19 21 19H13C12.4478 19 12.0001 18.5523 12 18C12 17.4478 12.4478 17 13 17H21ZM21 11C21.5523 11.0001 22 11.4478 22 12C22 12.5523 21.5523 13 21 13H13C12.4478 13 12.0001 12.5523 12 12C12 11.4478 12.4478 11 13 11H21ZM8.29302 4.29302C8.68354 3.90249 9.31655 3.90249 9.70708 4.29302C10.0975 4.68355 10.0976 5.31658 9.70708 5.70708L5.70708 9.70708C5.31658 10.0976 4.68355 10.0975 4.29302 9.70708L2.29302 7.70708C1.90249 7.31655 1.90249 6.68354 2.29302 6.29302C2.65913 5.9269 3.23813 5.90431 3.63091 6.22466L3.70708 6.29302L5.00005 7.58598L8.29302 4.29302ZM21 5.00005C21.5523 5.00009 22 5.44779 22 6.00005C22 6.55227 21.5523 7.00001 21 7.00005H13C12.4478 7.00005 12.0001 6.5523 12 6.00005C12 5.44776 12.4478 5.00005 13 5.00005H21Z" fill="#363636"/>
</svg>
