<svg width="24" height="24" viewBox="0 0 24 24" fill="none" xmlns="http://www.w3.org/2000/svg">
<path d="M6.11915 3.91014C8.04525 2.50675 10.4093 1.83724 12.7852 2.02244C15.1613 2.20781 17.3938 3.23563 19.0791 4.92088C20.7644 6.60618 21.7922 8.83866 21.9776 11.2148C22.1628 13.5908 21.4933 15.9547 20.0899 17.8808C18.6863 19.8071 16.6409 21.1691 14.3223 21.7207C12.1442 22.2388 9.85983 22.0094 7.83302 21.0781L2.3213 22.9472C1.96089 23.0694 1.56207 22.9761 1.29298 22.707C1.02395 22.4379 0.930603 22.0391 1.05275 21.6787L2.92091 16.166C1.99004 14.1395 1.76125 11.8553 2.27931 9.67771C2.83093 7.35909 4.19293 5.31369 6.11915 3.91014ZM12.6299 4.01658C10.7291 3.86838 8.83779 4.40365 7.29689 5.52635C5.75592 6.64919 4.66592 8.28571 4.22462 10.1406C3.78338 11.9954 4.01948 13.9471 4.88966 15.6435C5.01311 15.8842 5.03405 16.1647 4.94728 16.4209L3.59767 20.4013L7.57911 19.0527L7.67579 19.0254C7.90446 18.9728 8.14577 19.0023 8.35646 19.1103C10.0529 19.9805 12.0046 20.2166 13.8594 19.7754C15.7143 19.3341 17.3508 18.2441 18.4736 16.7031C19.5964 15.1621 20.1317 13.2709 19.9834 11.3701C19.8351 9.46917 19.0133 7.68319 17.6651 6.33494C16.3168 4.98676 14.5308 4.16488 12.6299 4.01658ZM14.0508 7.48533C14.8787 7.48547 15.6759 7.78058 16.3047 8.31053C16.3814 8.34972 16.4553 8.39796 16.5215 8.45799L16.5938 8.53123L16.8086 8.79197C17.2815 9.42023 17.5536 10.1844 17.5381 10.9941C17.5201 11.928 17.1213 12.8435 16.3574 13.6074L16.3477 13.6172L12.7481 17.1172C12.36 17.4944 11.7417 17.4942 11.3535 17.1172L7.79396 13.6562C7.43853 13.3839 7.1389 13.0451 6.91407 12.6572C6.67472 12.2441 6.52409 11.7852 6.47267 11.3105C6.42127 10.836 6.47 10.356 6.61525 9.90135C6.76061 9.44664 7.00024 9.0267 7.3174 8.6699C7.63448 8.31333 8.0227 8.02666 8.45704 7.82908C8.89139 7.63158 9.36273 7.52708 9.83986 7.52244C10.3171 7.51792 10.7913 7.61349 11.2295 7.80271C11.4768 7.90959 11.7094 8.04627 11.9238 8.20701C12.5313 7.74205 13.2779 7.48533 14.0508 7.48533ZM14.0508 9.48533C13.6773 9.48533 13.3185 9.62581 13.043 9.87596L12.8008 10.2002C12.635 10.4212 12.3841 10.5635 12.1094 10.5937C11.8347 10.6238 11.5595 10.5391 11.3496 10.3594L11 10.0596C10.9706 10.0344 10.9423 10.0069 10.916 9.9785C10.7817 9.83314 10.6182 9.71722 10.4365 9.63865C10.2547 9.56012 10.0575 9.5206 9.85939 9.52244C9.66136 9.52436 9.46546 9.56746 9.28517 9.64939C9.10482 9.73143 8.9432 9.85095 8.81154 9.999C8.68 10.147 8.58084 10.3211 8.52052 10.5097C8.46021 10.6984 8.43968 10.8978 8.46095 11.0947C8.4823 11.2918 8.54517 11.4828 8.64454 11.6543C8.74384 11.8255 8.87797 11.9744 9.0381 12.0908C9.07644 12.1187 9.11347 12.1496 9.14747 12.1826L12.0498 15.0039L14.9531 12.1826C15.3813 11.7501 15.531 11.3191 15.5381 10.956C15.5442 10.6368 15.4412 10.3103 15.2276 10.0176C15.1836 9.98665 15.1403 9.95288 15.1006 9.91404C14.8204 9.63938 14.4432 9.48549 14.0508 9.48533Z" fill="#363636"/>
</svg>
