<svg width="24" height="24" viewBox="0 0 24 24" fill="none" xmlns="http://www.w3.org/2000/svg">
<path d="M19.3359 2.3233C20.166 2.37296 20.9501 2.72554 21.5381 3.31353C22.1257 3.90151 22.4778 4.6849 22.5273 5.51471C22.5624 6.10397 22.4404 6.68694 22.1846 7.21002C22.3072 7.4737 22.3973 7.75293 22.4492 8.04107C22.5434 8.56435 22.5138 9.1037 22.3623 9.61334C22.2107 10.1229 21.9409 10.5899 21.5762 10.9766C21.5339 11.0214 21.4898 11.0643 21.4453 11.1065C21.541 11.1542 21.63 11.216 21.707 11.293C21.8946 11.4805 22 11.7349 22 12.0001C22 14.6522 20.9466 17.196 19.0713 19.0713C18.6336 19.5091 18.1587 19.901 17.6553 20.2462C17.866 20.4295 18 20.6988 18 21.0001C18 21.5523 17.5523 22.0001 17 22.0001H7C6.44772 22.0001 6 21.5523 6 21.0001C6.00002 20.6986 6.13369 20.4285 6.34473 20.2452C5.84148 19.9 5.36629 19.5089 4.92871 19.0713C3.05337 17.196 2 14.6522 2 12.0001C2.00002 11.7349 2.10545 11.4805 2.29297 11.293C2.4805 11.1055 2.7348 11.0001 3 11.0001H3.10352C3.05921 10.7853 3.02714 10.5655 3.01172 10.3409L3 10.0001C2.99604 8.99944 3.29316 8.02025 3.85254 7.19049C4.41305 6.35922 5.21125 5.716 6.14258 5.34478C7.07394 4.9736 8.09557 4.89159 9.07422 5.10943C9.44734 5.1925 9.80746 5.31779 10.1484 5.4815C10.3484 4.96109 10.6729 4.49695 11.0957 4.13092C11.561 3.72815 12.1273 3.45901 12.7334 3.3526C13.0898 3.29008 13.4526 3.28663 13.8076 3.33795C13.9607 3.18559 14.1285 3.04801 14.3086 2.92682C14.6979 2.66492 15.137 2.48625 15.5986 2.4024C16.0603 2.31863 16.5347 2.33118 16.9912 2.43951C17.2156 2.4928 17.4337 2.5692 17.6416 2.66607C18.1646 2.41043 18.7469 2.28816 19.3359 2.3233ZM4.06543 13.0001C4.28631 14.7529 5.08024 16.3947 6.34277 17.6573C7.84306 19.1576 9.87827 20.0001 12 20.0001L12.3965 19.9903C14.3739 19.8922 16.2507 19.0639 17.6572 17.6573C18.9198 16.3947 19.7137 14.7529 19.9346 13.0001H4.06543ZM8.63965 7.06158C8.05324 6.93106 7.44088 6.98076 6.88281 7.20318C6.32491 7.42564 5.84652 7.81065 5.51074 8.30865C5.17505 8.80666 4.99701 9.3946 5 9.99518V10.0001C5.00005 10.3501 5.06214 10.6857 5.1748 11.0001H8.2627C8.10437 10.6501 8.00244 10.2742 7.96973 9.88482C7.89803 9.02988 8.15258 8.17936 8.68164 7.50396C8.77635 7.38307 8.87834 7.26906 8.9873 7.16314C8.87375 7.12293 8.75807 7.08795 8.63965 7.06158ZM19.2168 4.32037C18.8751 4.29999 18.5377 4.40487 18.2686 4.61627C17.912 4.89649 17.4111 4.90161 17.0488 4.62896C16.8946 4.51277 16.7172 4.42948 16.5293 4.38482C16.3415 4.34028 16.146 4.33573 15.9561 4.37018C15.766 4.4047 15.5851 4.47816 15.4248 4.586C15.2645 4.69387 15.128 4.83401 15.0244 4.99713C14.7693 5.39823 14.2662 5.56451 13.8223 5.39459C13.5857 5.30393 13.3286 5.27859 13.0791 5.32232C12.8297 5.36613 12.5968 5.47695 12.4053 5.64264C12.2137 5.8085 12.0703 6.02394 11.9912 6.26471C11.9123 6.50524 11.9003 6.76289 11.9561 7.00982C12.0168 7.27916 11.9634 7.56242 11.8086 7.79107C11.6619 8.00757 11.4357 8.15576 11.1807 8.20807C11.1273 8.22366 11.0733 8.23475 11.0186 8.24127C10.7173 8.3165 10.4487 8.49116 10.2559 8.73736C10.0381 9.01544 9.93337 9.36586 9.96289 9.71783C9.99256 10.0696 10.154 10.398 10.415 10.6358C10.6435 10.8437 10.9339 10.9692 11.2393 10.9952L11.3496 11.0001H12.5859L16.293 7.29303C16.6835 6.90254 17.3165 6.90254 17.707 7.29303C18.0975 7.68354 18.0975 8.31656 17.707 8.70709L15.4141 11.0001H18.9258C18.8804 10.5509 19.1441 10.118 19.5801 9.96002C19.7857 9.88546 19.971 9.76361 20.1211 9.60455C20.2713 9.4453 20.3829 9.25283 20.4453 9.04303C20.5077 8.83328 20.5192 8.61094 20.4805 8.39557C20.4417 8.18036 20.3531 7.97657 20.2217 7.80182C19.9489 7.43953 19.9542 6.93865 20.2344 6.58209C20.4457 6.31303 20.5515 5.97537 20.5312 5.63385C20.5108 5.29224 20.3649 4.96967 20.123 4.7276C19.881 4.48561 19.5584 4.34086 19.2168 4.32037Z" fill="url(#paint0_linear_132_2064)"/>
<defs>
<linearGradient id="paint0_linear_132_2064" x1="5.5" y1="25" x2="22" y2="3.5" gradientUnits="userSpaceOnUse">
<stop stop-color="#566FC6"/>
<stop offset="1" stop-color="#BDC8F4"/>
</linearGradient>
</defs>
</svg>
