<svg width="22" height="22" viewBox="0 0 22 22" fill="none" xmlns="http://www.w3.org/2000/svg">
<path d="M20.7271 0.0163574L20.8315 0.0358887L20.9341 0.0622559C21.1375 0.123018 21.3255 0.226895 21.4858 0.365967L21.564 0.438232L21.6362 0.515381C21.7752 0.675621 21.8782 0.863922 21.939 1.06714L21.9663 1.17065L21.9858 1.27515C22.0214 1.51404 21.9972 1.75812 21.9175 1.98706L21.9185 1.98804L15.4185 20.988V20.989C15.3192 21.2783 15.1338 21.5307 14.8872 21.7117C14.6405 21.8927 14.3435 21.9939 14.0376 22.0017C13.7319 22.0095 13.4308 21.9236 13.1753 21.7556C12.9197 21.5874 12.7209 21.3443 12.6069 21.0603L9.42725 13.1296L9.38525 13.0378C9.33842 12.9487 9.27804 12.8671 9.20654 12.7957C9.11103 12.7003 8.99684 12.6251 8.87158 12.575V12.574L0.940918 9.39429C0.657116 9.28036 0.414716 9.08235 0.246582 8.8269C0.0784404 8.57122 -0.00734519 8.26954 0.000488281 7.96362C0.00836213 7.65778 0.10956 7.36167 0.290527 7.11499L0.36084 7.02515C0.534342 6.82294 0.759874 6.67065 1.01318 6.58374V6.58276L20.0132 0.0827637V0.0837402C20.2426 0.0037044 20.4876 -0.0194075 20.7271 0.0163574ZM11.2065 12.2087C11.2338 12.2658 11.259 12.3238 11.2827 12.3826L11.2837 12.3845L13.9614 19.0652L18.9585 4.45679L11.2065 12.2087ZM2.93506 8.03882L9.61377 10.7175H9.61475C9.67444 10.7414 9.7336 10.7671 9.7915 10.7947L17.5483 3.03979L2.93506 8.03882Z" fill="#363636" fill-opacity="0.5"/>
</svg>
