<svg width="24" height="24" viewBox="0 0 24 24" fill="none" xmlns="http://www.w3.org/2000/svg">
<path d="M11 1C11.5523 1 12 1.44772 12 2C12.7956 2 13.5585 2.3163 14.1211 2.87891C14.6837 3.44151 15 4.20435 15 5V9C15 10.8565 14.2629 12.6374 12.9502 13.9502C11.896 15.0044 10.5396 15.6849 9.08496 15.9131C9.26835 16.8995 9.74534 17.8156 10.4648 18.5352C11.4025 19.4728 12.6739 20 14 20C15.3261 20 16.5975 19.4728 17.5352 18.5352C18.4142 17.6561 18.9328 16.4838 18.9941 15.248L19 15V12.8252C17.8355 12.413 17 11.3057 17 10C17 8.34315 18.3431 7 20 7C21.6569 7 23 8.34315 23 10C23 11.3057 22.1645 12.413 21 12.8252V15C21 16.8565 20.263 18.6374 18.9502 19.9502C17.6374 21.263 15.8565 22 14 22C12.1435 22 10.3626 21.263 9.0498 19.9502C7.95937 18.8598 7.26798 17.4461 7.06445 15.9346C5.55338 15.7309 4.13998 15.0404 3.0498 13.9502C1.819 12.7194 1.09452 11.077 1.00879 9.34668L1 9V5C1 4.20435 1.3163 3.44152 1.87891 2.87891C2.44152 2.3163 3.20435 2 4 2C4 1.44772 4.44772 1 5 1C5.55228 1 6 1.44772 6 2V4C6 4.55228 5.55228 5 5 5C4.44772 5 4 4.55228 4 4C3.73478 4 3.4805 4.10543 3.29297 4.29297C3.10543 4.4805 3 4.73478 3 5V9L3.00586 9.24805C3.06719 10.4838 3.58579 11.6561 4.46484 12.5352C5.40253 13.4728 6.67392 14 8 14C9.32608 14 10.5975 13.4728 11.5352 12.5352C12.4142 11.6561 12.9328 10.4838 12.9941 9.24805L13 9V5C13 4.73478 12.8946 4.48051 12.707 4.29297C12.5195 4.10543 12.2652 4 12 4C12 4.55228 11.5523 5 11 5C10.4477 5 10 4.55228 10 4V2C10 1.44772 10.4477 1 11 1ZM20 9C19.4477 9 19 9.44771 19 10C19 10.5523 19.4477 11 20 11C20.5523 11 21 10.5523 21 10C21 9.44771 20.5523 9 20 9Z" fill="url(#paint0_linear_132_1801)"/>
<defs>
<linearGradient id="paint0_linear_132_1801" x1="4.75001" y1="25.2007" x2="22.335" y2="2.1902" gradientUnits="userSpaceOnUse">
<stop stop-color="#566FC6"/>
<stop offset="1" stop-color="#BDC8F4"/>
</linearGradient>
</defs>
</svg>
