<svg width="345" height="111" viewBox="0 0 345 111" fill="none" xmlns="http://www.w3.org/2000/svg">
<g clip-path="url(#clip0_2_20)">
<rect width="345" height="111" rx="28" fill="#F6F4FA"/>
<g filter="url(#filter0_gn_2_20)">
<path d="M36.2768 127.455C44.8886 122.198 77.7577 93.7379 83.8028 82.196C92.0238 66.5 90.5214 57.6639 97 55.5955C103.479 53.5272 107.5 68.5 99.3152 83.2889C109.165 68.9282 128.878 51.0759 138.418 45.3752C146.369 40.6247 147.928 46.2753 144.97 50.3065C140.486 56.4188 122.716 73.7857 120.753 77.3066C121.397 76.2998 144.997 52.8063 154.428 46.2066C161.033 41.5842 164.327 46.1025 160.496 52.6431C158.211 56.5441 153.966 62.191 149.094 68.0635C155.267 62.1571 161.17 57.2212 165.027 55.5955C174.479 51.6121 164.077 72.0463 144.496 92.9999C150.052 87.8926 156.015 83.1635 159.312 82.6571C166.301 81.5835 145.55 105.303 140.113 111.361C134.677 117.418 84.5479 152.948 71.596 157.585C61.2345 161.294 43.7325 139.044 36.2768 127.455Z" fill="#B2C0F3"/>
<path d="M36.2768 127.455C44.8886 122.198 77.7577 93.7379 83.8028 82.196C92.0238 66.5 90.5214 57.6639 97 55.5955C103.479 53.5272 107.5 68.5 99.3152 83.2889C109.165 68.9282 128.878 51.0759 138.418 45.3752C146.369 40.6247 147.928 46.2753 144.97 50.3065C140.486 56.4188 122.716 73.7857 120.753 77.3066C121.397 76.2998 144.997 52.8063 154.428 46.2066C161.033 41.5842 164.327 46.1025 160.496 52.6431C158.211 56.5441 153.966 62.191 149.094 68.0635C155.267 62.1571 161.17 57.2212 165.027 55.5955C174.479 51.6121 164.077 72.0463 144.496 92.9999C150.052 87.8926 156.015 83.1635 159.312 82.6571C166.301 81.5835 145.55 105.303 140.113 111.361C134.677 117.418 84.5479 152.948 71.596 157.585C61.2345 161.294 43.7325 139.044 36.2768 127.455Z" fill="url(#paint0_radial_2_20)"/>
<path d="M36.2768 127.455C44.8886 122.198 77.7576 93.7379 83.8028 82.196C92.0238 66.5 90.5214 57.6639 97 55.5955C103.479 53.5272 107.5 68.5 99.3152 83.2889C109.165 68.9282 128.878 51.0759 138.418 45.3752C146.369 40.6247 147.928 46.2753 144.97 50.3065C140.486 56.4188 122.716 73.7857 120.753 77.3066C121.397 76.2998 144.997 52.8063 154.428 46.2066C161.033 41.5842 164.327 46.1025 160.496 52.6431C154.876 62.2365 137.408 82.3878 127.893 90.4884C136.95 80.0591 156.266 59.288 165.027 55.5955C175.979 50.98 160.275 79.1468 134.524 102.919C140.457 96.5231 153.721 83.5161 159.312 82.6571C166.301 81.5835 145.55 105.303 140.113 111.361C134.677 117.418 84.5479 152.948 71.596 157.585C61.2345 161.294 43.7325 139.044 36.2768 127.455Z" stroke="#566FC6"/>
</g>
<g filter="url(#filter1_gn_2_20)">
<path d="M305.021 -3.11346C296.354 2.05321 263.187 30.1652 257.021 41.6428C248.635 57.2513 250.044 66.1028 243.544 68.1028C237.044 70.1028 233.181 55.0885 241.521 40.3866C231.521 54.6428 211.621 72.2865 202.021 77.8864C194.021 82.553 192.521 76.8863 195.521 72.8864C200.069 66.8217 218.021 49.6428 220.021 46.1428C219.366 47.1428 195.521 70.3865 186.021 76.8865C179.367 81.4391 176.121 76.8864 180.021 70.3865C182.347 66.5097 186.65 60.9078 191.584 55.087C185.35 60.928 179.395 65.8016 175.521 67.3865C166.027 71.2702 176.644 50.9466 196.444 30.2003C190.835 35.2489 184.822 39.9149 181.521 40.3866C174.521 41.3866 195.521 17.8865 201.021 11.8865C206.521 5.88655 257.021 -29.1134 270.021 -33.6134C280.421 -37.2134 297.687 -14.7801 305.021 -3.11346Z" fill="#E4B9F0"/>
<path d="M305.021 -3.11346C296.354 2.05321 263.187 30.1652 257.021 41.6428C248.635 57.2513 250.044 66.1028 243.544 68.1028C237.044 70.1028 233.181 55.0885 241.521 40.3866C231.521 54.6428 211.621 72.2865 202.021 77.8864C194.021 82.553 192.521 76.8863 195.521 72.8864C200.069 66.8217 218.021 49.6428 220.021 46.1428C219.366 47.1428 195.521 70.3865 186.021 76.8865C179.367 81.4391 176.121 76.8864 180.021 70.3865C182.347 66.5097 186.65 60.9078 191.584 55.087C185.35 60.928 179.395 65.8016 175.521 67.3865C166.027 71.2702 176.644 50.9466 196.444 30.2003C190.835 35.2489 184.822 39.9149 181.521 40.3866C174.521 41.3866 195.521 17.8865 201.021 11.8865C206.521 5.88655 257.021 -29.1134 270.021 -33.6134C280.421 -37.2134 297.687 -14.7801 305.021 -3.11346Z" fill="url(#paint1_radial_2_20)"/>
<path d="M305.021 -3.11346C296.354 2.05321 263.187 30.1652 257.021 41.6428C248.635 57.2513 250.044 66.1028 243.544 68.1028C237.044 70.1028 233.181 55.0885 241.521 40.3866C231.521 54.6428 211.621 72.2865 202.021 77.8864C194.021 82.553 192.521 76.8863 195.521 72.8864C200.069 66.8217 218.021 49.6428 220.021 46.1428C219.366 47.1428 195.521 70.3865 186.021 76.8865C179.367 81.4391 176.121 76.8864 180.021 70.3865C185.741 60.8528 203.421 40.8865 213.021 32.8865C203.854 43.2199 184.321 63.7865 175.521 67.3865C164.521 71.8865 180.521 43.8866 206.521 20.3866C200.521 26.7199 187.121 39.5866 181.521 40.3866C174.521 41.3866 195.521 17.8865 201.021 11.8865C206.521 5.88655 257.021 -29.1134 270.021 -33.6134C280.421 -37.2134 297.687 -14.7801 305.021 -3.11346Z" stroke="#B846D7"/>
</g>
</g>
<rect x="0.5" y="0.5" width="344" height="110" rx="27.5" stroke="#E7E7E7"/>
<defs>
<filter id="filter0_gn_2_20" x="29.2593" y="36.7455" width="146.123" height="128.072" filterUnits="userSpaceOnUse" color-interpolation-filters="sRGB">
<feFlood flood-opacity="0" result="BackgroundImageFix"/>
<feBlend mode="normal" in="SourceGraphic" in2="BackgroundImageFix" result="shape"/>
<feTurbulence type="fractalNoise" baseFrequency="2.5 2.5" numOctaves="3" seed="5846" />
<feDisplacementMap in="shape" scale="12.640000343322754" xChannelSelector="R" yChannelSelector="G" result="displacedImage" width="100%" height="100%" />
<feMerge result="effect1_texture_2_20">
<feMergeNode in="displacedImage"/>
</feMerge>
<feTurbulence type="fractalNoise" baseFrequency="1.4285714626312256 1.4285714626312256" stitchTiles="stitch" numOctaves="3" result="noise" seed="5484" />
<feColorMatrix in="noise" type="luminanceToAlpha" result="alphaNoise" />
<feComponentTransfer in="alphaNoise" result="coloredNoise1">
<feFuncA type="discrete" tableValues="1 1 1 1 1 1 1 1 1 1 1 1 1 1 1 1 1 1 1 1 1 1 1 1 1 1 1 1 1 1 1 1 1 1 1 1 1 1 1 1 1 1 1 1 1 1 1 1 1 1 1 0 0 0 0 0 0 0 0 0 0 0 0 0 0 0 0 0 0 0 0 0 0 0 0 0 0 0 0 0 0 0 0 0 0 0 0 0 0 0 0 0 0 0 0 0 0 0 0 0 "/>
</feComponentTransfer>
<feComposite operator="in" in2="effect1_texture_2_20" in="coloredNoise1" result="noise1Clipped" />
<feFlood flood-color="rgba(255, 255, 255, 0.5)" result="color1Flood" />
<feComposite operator="in" in2="noise1Clipped" in="color1Flood" result="color1" />
<feMerge result="effect2_noise_2_20">
<feMergeNode in="effect1_texture_2_20" />
<feMergeNode in="color1" />
</feMerge>
</filter>
<filter id="filter1_gn_2_20" x="165.18" y="-40.8203" width="146.856" height="127.283" filterUnits="userSpaceOnUse" color-interpolation-filters="sRGB">
<feFlood flood-opacity="0" result="BackgroundImageFix"/>
<feBlend mode="normal" in="SourceGraphic" in2="BackgroundImageFix" result="shape"/>
<feTurbulence type="fractalNoise" baseFrequency="2.5 2.5" numOctaves="3" seed="5846" />
<feDisplacementMap in="shape" scale="12.640000343322754" xChannelSelector="R" yChannelSelector="G" result="displacedImage" width="100%" height="100%" />
<feMerge result="effect1_texture_2_20">
<feMergeNode in="displacedImage"/>
</feMerge>
<feTurbulence type="fractalNoise" baseFrequency="1.4285714626312256 1.4285714626312256" stitchTiles="stitch" numOctaves="3" result="noise" seed="5484" />
<feColorMatrix in="noise" type="luminanceToAlpha" result="alphaNoise" />
<feComponentTransfer in="alphaNoise" result="coloredNoise1">
<feFuncA type="discrete" tableValues="1 1 1 1 1 1 1 1 1 1 1 1 1 1 1 1 1 1 1 1 1 1 1 1 1 1 1 1 1 1 1 1 1 1 1 1 1 1 1 1 1 1 1 1 1 1 1 1 1 1 1 0 0 0 0 0 0 0 0 0 0 0 0 0 0 0 0 0 0 0 0 0 0 0 0 0 0 0 0 0 0 0 0 0 0 0 0 0 0 0 0 0 0 0 0 0 0 0 0 0 "/>
</feComponentTransfer>
<feComposite operator="in" in2="effect1_texture_2_20" in="coloredNoise1" result="noise1Clipped" />
<feFlood flood-color="rgba(255, 255, 255, 0.5)" result="color1Flood" />
<feComposite operator="in" in2="noise1Clipped" in="color1Flood" result="color1" />
<feMerge result="effect2_noise_2_20">
<feMergeNode in="effect1_texture_2_20" />
<feMergeNode in="color1" />
</feMerge>
</filter>
<radialGradient id="paint0_radial_2_20" cx="0" cy="0" r="1" gradientUnits="userSpaceOnUse" gradientTransform="translate(69.5 94) rotate(-1.94148) scale(59.0339 94.9708)">
<stop stop-color="white" stop-opacity="0.5"/>
<stop offset="1" stop-color="white" stop-opacity="0"/>
</radialGradient>
<radialGradient id="paint1_radial_2_20" cx="0" cy="0" r="1" gradientUnits="userSpaceOnUse" gradientTransform="translate(271.447 29.99) rotate(178.662) scale(59.0339 94.9708)">
<stop stop-color="white" stop-opacity="0.5"/>
<stop offset="1" stop-color="white" stop-opacity="0"/>
</radialGradient>
<clipPath id="clip0_2_20">
<rect width="345" height="111" rx="28" fill="white"/>
</clipPath>
</defs>
</svg>
